<svg width="396" height="217" viewBox="0 0 396 217" fill="none" xmlns="http://www.w3.org/2000/svg">
<path d="M25.3193 195.137C25.3193 196.439 25.0426 197.708 24.4893 198.945C23.9684 200.15 23.2197 201.224 22.2432 202.168C21.2666 203.079 20.0622 203.812 18.6299 204.365C17.1976 204.919 15.57 205.195 13.7471 205.195C12.9658 205.195 12.152 205.146 11.3057 205.049C10.4919 204.984 9.66178 204.854 8.81543 204.658C7.96908 204.463 7.15527 204.202 6.37402 203.877C5.62533 203.519 4.97428 203.096 4.4209 202.607L5.44629 198.408C5.90202 198.669 6.47168 198.929 7.15527 199.189C7.87142 199.417 8.60384 199.645 9.35254 199.873C10.1012 200.068 10.8499 200.231 11.5986 200.361C12.3473 200.492 13.0472 200.557 13.6982 200.557C15.6839 200.557 17.1976 200.101 18.2393 199.189C19.3135 198.245 19.8506 196.862 19.8506 195.039C19.8506 193.932 19.4762 192.988 18.7275 192.207C17.9788 191.426 17.0348 190.726 15.8955 190.107C14.7887 189.456 13.5843 188.822 12.2822 188.203C10.9801 187.552 9.75944 186.803 8.62012 185.957C7.48079 185.078 6.53678 184.053 5.78809 182.881C5.03939 181.709 4.66504 180.244 4.66504 178.486C4.66504 176.891 4.95801 175.475 5.54395 174.238C6.12988 173.001 6.91113 171.96 7.8877 171.113C8.89681 170.234 10.0524 169.567 11.3545 169.111C12.6891 168.656 14.0889 168.428 15.5537 168.428C17.0511 168.428 18.5648 168.574 20.0947 168.867C21.6247 169.128 22.8617 169.567 23.8057 170.186C23.6104 170.609 23.3825 171.081 23.1221 171.602C22.8617 172.09 22.6175 172.562 22.3896 173.018C22.1618 173.441 21.9665 173.799 21.8037 174.092C21.641 174.385 21.5433 174.548 21.5107 174.58C21.3154 174.482 21.0876 174.352 20.8271 174.189C20.5993 174.027 20.2575 173.864 19.8018 173.701C19.346 173.538 18.7438 173.424 17.9951 173.359C17.2464 173.294 16.2861 173.311 15.1143 173.408C14.4632 173.473 13.8447 173.669 13.2588 173.994C12.6729 174.287 12.152 174.661 11.6963 175.117C11.2406 175.573 10.8825 176.094 10.6221 176.68C10.3617 177.233 10.2314 177.77 10.2314 178.291C10.2314 179.593 10.6058 180.651 11.3545 181.465C12.1032 182.246 13.0309 182.946 14.1377 183.564C15.2445 184.15 16.4489 184.736 17.751 185.322C19.0531 185.876 20.2575 186.559 21.3643 187.373C22.5036 188.187 23.4476 189.212 24.1963 190.449C24.945 191.654 25.3193 193.216 25.3193 195.137ZM42.6533 177.168C44.8669 177.168 46.82 177.624 48.5127 178.535C50.2054 179.414 51.5889 180.602 52.6631 182.1C53.7699 183.564 54.5511 185.273 55.0068 187.227C55.4951 189.147 55.5928 191.149 55.2998 193.232H36.1592C36.1592 194.274 36.3545 195.234 36.7451 196.113C37.1357 196.992 37.6566 197.757 38.3076 198.408C38.9912 199.027 39.7887 199.515 40.7002 199.873C41.6442 200.231 42.6533 200.41 43.7275 200.41C44.0856 200.41 44.5251 200.378 45.0459 200.312C45.5993 200.215 46.1689 200.068 46.7549 199.873C47.3734 199.645 47.9756 199.368 48.5615 199.043C49.18 198.717 49.7171 198.327 50.1729 197.871L52.3213 201.143C51.2471 202.477 49.9938 203.486 48.5615 204.17C47.1292 204.854 45.3063 205.195 43.0928 205.195C41.3024 205.195 39.626 204.837 38.0635 204.121C36.501 203.372 35.1663 202.363 34.0596 201.094C32.9528 199.824 32.0739 198.343 31.4229 196.65C30.7718 194.958 30.4463 193.135 30.4463 191.182C30.4463 189.261 30.7718 187.454 31.4229 185.762C32.0739 184.036 32.9365 182.539 34.0107 181.27C35.1175 180 36.4196 179.007 37.917 178.291C39.4144 177.542 40.9932 177.168 42.6533 177.168ZM49.8311 188.936C49.8311 188.057 49.6683 187.194 49.3428 186.348C49.0173 185.501 48.5615 184.736 47.9756 184.053C47.4222 183.369 46.7386 182.832 45.9248 182.441C45.111 182.018 44.2321 181.79 43.2881 181.758C42.279 181.758 41.3512 181.953 40.5049 182.344C39.6585 182.734 38.9261 183.255 38.3076 183.906C37.6891 184.557 37.2008 185.339 36.8428 186.25C36.5173 187.129 36.3545 188.024 36.3545 188.936H49.8311ZM47.7803 167.061L42.458 173.994H38.5518L41.8232 167.061H47.7803ZM79.0303 183.418C78.1188 183.158 77.012 183.011 75.71 182.979C74.5381 182.979 73.3662 183.125 72.1943 183.418C71.055 183.678 70.1436 184.134 69.46 184.785V195.234V195.332V205H63.5518V177.461H68.8252L69.46 180.293C69.9482 179.805 70.4528 179.365 70.9736 178.975C71.527 178.584 72.1618 178.275 72.8779 178.047C73.5941 177.786 74.4404 177.591 75.417 177.461C76.3936 177.331 77.598 177.266 79.0303 177.266V183.418ZM90.9443 208.564C91.2699 209.118 91.6768 209.574 92.165 209.932C92.6859 210.29 93.2067 210.566 93.7275 210.762C94.2809 210.957 94.818 211.087 95.3389 211.152C95.8923 211.25 96.3805 211.299 96.8037 211.299C98.8219 211.299 100.401 210.713 101.54 209.541C102.679 208.369 103.249 206.367 103.249 203.535V202.266V202.168L103.298 201.924C103.298 201.891 103.282 201.859 103.249 201.826C103.249 201.794 103.249 201.761 103.249 201.729C103.151 202.152 102.858 202.575 102.37 202.998C101.914 203.421 101.328 203.812 100.612 204.17C99.8962 204.495 99.0824 204.756 98.1709 204.951C97.2594 205.146 96.3154 205.244 95.3389 205.244C93.516 205.244 91.9209 204.854 90.5537 204.072C89.1865 203.258 88.0472 202.184 87.1357 200.85C86.2243 199.515 85.557 197.985 85.1338 196.26C84.7106 194.535 84.499 192.728 84.499 190.84C84.499 188.301 84.8408 186.169 85.5244 184.443C86.2406 182.718 87.1357 181.318 88.21 180.244C89.3167 179.137 90.5374 178.356 91.8721 177.9C93.2393 177.445 94.5739 177.217 95.876 177.217C97.471 177.217 98.9196 177.493 100.222 178.047C101.556 178.6 102.565 179.333 103.249 180.244L103.884 177.461H109.157L109.108 205C108.978 206.986 108.571 208.678 107.888 210.078C107.237 211.478 106.39 212.633 105.349 213.545C104.307 214.456 103.103 215.107 101.735 215.498C100.368 215.889 98.9033 216.084 97.3408 216.084C95.5179 216.084 93.7113 215.758 91.9209 215.107C90.1631 214.489 88.6982 213.431 87.5264 211.934L90.9443 208.564ZM103.64 191.035C103.64 189.733 103.477 188.529 103.151 187.422C102.826 186.315 102.386 185.339 101.833 184.492C101.28 183.646 100.596 182.979 99.7822 182.49C98.9684 182.002 98.0895 181.758 97.1455 181.758C96.1689 181.758 95.2738 182.018 94.46 182.539C93.6787 183.027 93.0114 183.695 92.458 184.541C91.9046 185.387 91.4814 186.38 91.1885 187.52C90.8955 188.659 90.749 189.863 90.749 191.133C90.749 192.435 90.8955 193.672 91.1885 194.844C91.514 195.983 91.9535 196.976 92.5068 197.822C93.0928 198.669 93.7764 199.352 94.5576 199.873C95.3714 200.361 96.2666 200.605 97.2432 200.605C98.2523 200.605 99.1475 200.361 99.9287 199.873C100.71 199.352 101.361 198.669 101.882 197.822C102.435 196.943 102.858 195.918 103.151 194.746C103.477 193.574 103.64 192.337 103.64 191.035ZM124.587 205H118.63V177.461H124.587V205ZM125.124 168.672C125.124 169.648 124.782 170.479 124.099 171.162C123.415 171.813 122.585 172.139 121.608 172.139C120.632 172.139 119.802 171.797 119.118 171.113C118.467 170.43 118.142 169.616 118.142 168.672C118.142 167.695 118.483 166.865 119.167 166.182C119.851 165.498 120.664 165.156 121.608 165.156C122.585 165.156 123.415 165.498 124.099 166.182C124.782 166.865 125.124 167.695 125.124 168.672ZM145.144 177.314C147.032 177.314 148.741 177.689 150.271 178.438C151.8 179.154 153.103 180.146 154.177 181.416C155.251 182.686 156.081 184.167 156.667 185.859C157.253 187.552 157.546 189.375 157.546 191.328C157.546 193.281 157.237 195.12 156.618 196.846C156 198.538 155.121 200.02 153.981 201.289C152.875 202.526 151.54 203.503 149.978 204.219C148.448 204.902 146.739 205.244 144.851 205.244C142.93 205.244 141.172 204.886 139.577 204.17C138.015 203.454 136.68 202.461 135.573 201.191C134.499 199.922 133.669 198.441 133.083 196.748C132.497 195.055 132.204 193.216 132.204 191.23C132.204 189.245 132.513 187.389 133.132 185.664C133.783 183.939 134.662 182.474 135.769 181.27C136.908 180.033 138.275 179.072 139.87 178.389C141.465 177.673 143.223 177.314 145.144 177.314ZM144.753 200.605C145.729 200.605 146.608 200.378 147.39 199.922C148.203 199.434 148.887 198.783 149.44 197.969C150.026 197.122 150.482 196.13 150.808 194.99C151.166 193.851 151.345 192.63 151.345 191.328C151.345 190.026 151.182 188.805 150.856 187.666C150.563 186.527 150.14 185.534 149.587 184.688C149.066 183.809 148.415 183.109 147.634 182.588C146.853 182.067 145.974 181.807 144.997 181.807C144.021 181.807 143.125 182.051 142.312 182.539C141.498 183.027 140.798 183.695 140.212 184.541C139.659 185.355 139.219 186.331 138.894 187.471C138.601 188.577 138.454 189.782 138.454 191.084C138.454 192.386 138.584 193.623 138.845 194.795C139.138 195.934 139.561 196.927 140.114 197.773C140.668 198.62 141.319 199.303 142.067 199.824C142.849 200.345 143.744 200.605 144.753 200.605ZM206.374 169.014V205H200.515V188.789H184.938V205H178.981V169.014H184.938V184.785H200.515V169.014H206.374ZM221.071 205H215.114V177.461H221.071V205ZM221.608 168.672C221.608 169.648 221.267 170.479 220.583 171.162C219.899 171.813 219.069 172.139 218.093 172.139C217.116 172.139 216.286 171.797 215.603 171.113C214.951 170.43 214.626 169.616 214.626 168.672C214.626 167.695 214.968 166.865 215.651 166.182C216.335 165.498 217.149 165.156 218.093 165.156C219.069 165.156 219.899 165.498 220.583 166.182C221.267 166.865 221.608 167.695 221.608 168.672ZM228.835 202.803L231.325 198.848C231.976 199.303 232.741 199.727 233.62 200.117C234.532 200.508 235.671 200.703 237.038 200.703C238.828 200.703 240.228 200.426 241.237 199.873C242.246 199.32 242.751 198.506 242.751 197.432C242.751 196.65 242.458 196.032 241.872 195.576C241.286 195.088 240.537 194.681 239.626 194.355C238.747 193.997 237.787 193.672 236.745 193.379C235.736 193.053 234.792 192.663 233.913 192.207C232.188 191.296 230.886 190.335 230.007 189.326C229.16 188.317 228.737 186.982 228.737 185.322C228.737 183.955 229.014 182.751 229.567 181.709C230.153 180.667 230.902 179.805 231.813 179.121C232.725 178.405 233.767 177.868 234.938 177.51C236.11 177.152 237.299 176.973 238.503 176.973C240.131 176.973 241.628 177.152 242.995 177.51C244.362 177.835 245.681 178.405 246.95 179.219L245.046 183.271C244.069 182.718 243.011 182.344 241.872 182.148C240.733 181.921 239.61 181.807 238.503 181.807C237.299 181.807 236.338 182.083 235.622 182.637C234.938 183.158 234.597 183.988 234.597 185.127C234.597 186.006 234.906 186.706 235.524 187.227C236.175 187.715 237.006 188.154 238.015 188.545C239.024 188.936 240.098 189.326 241.237 189.717C242.377 190.107 243.435 190.612 244.411 191.23C245.42 191.816 246.25 192.565 246.901 193.477C247.552 194.388 247.878 195.56 247.878 196.992C247.878 198.392 247.601 199.613 247.048 200.654C246.494 201.696 245.746 202.559 244.802 203.242C243.858 203.926 242.767 204.43 241.53 204.756C240.293 205.081 238.975 205.244 237.575 205.244C236.729 205.244 235.948 205.212 235.231 205.146C234.515 205.114 233.815 205.016 233.132 204.854C232.448 204.691 231.765 204.447 231.081 204.121C230.397 203.796 229.649 203.356 228.835 202.803ZM263.405 196.65C263.405 197.757 263.552 198.62 263.845 199.238C264.138 199.857 264.545 200.329 265.065 200.654C265.619 200.98 266.221 201.191 266.872 201.289C267.556 201.354 268.272 201.387 269.021 201.387V205C268.597 205.065 268.174 205.114 267.751 205.146C267.393 205.179 266.953 205.195 266.433 205.195C265.944 205.228 265.456 205.244 264.968 205.244C264.479 205.244 263.975 205.228 263.454 205.195C262.966 205.163 262.543 205.114 262.185 205.049C261.078 204.854 260.215 204.382 259.597 203.633C258.978 202.852 258.506 202.005 258.181 201.094C257.888 200.15 257.692 199.238 257.595 198.359C257.53 197.48 257.497 196.797 257.497 196.309V181.465H253.884V177.461H257.497V169.648H263.405V177.461H267.8V181.465H263.405V196.65ZM288.21 177.314C290.098 177.314 291.807 177.689 293.337 178.438C294.867 179.154 296.169 180.146 297.243 181.416C298.317 182.686 299.147 184.167 299.733 185.859C300.319 187.552 300.612 189.375 300.612 191.328C300.612 193.281 300.303 195.12 299.685 196.846C299.066 198.538 298.187 200.02 297.048 201.289C295.941 202.526 294.606 203.503 293.044 204.219C291.514 204.902 289.805 205.244 287.917 205.244C285.996 205.244 284.239 204.886 282.644 204.17C281.081 203.454 279.746 202.461 278.64 201.191C277.565 199.922 276.735 198.441 276.149 196.748C275.563 195.055 275.271 193.216 275.271 191.23C275.271 189.245 275.58 187.389 276.198 185.664C276.849 183.939 277.728 182.474 278.835 181.27C279.974 180.033 281.341 179.072 282.937 178.389C284.532 177.673 286.289 177.314 288.21 177.314ZM287.819 200.605C288.796 200.605 289.675 200.378 290.456 199.922C291.27 199.434 291.953 198.783 292.507 197.969C293.093 197.122 293.549 196.13 293.874 194.99C294.232 193.851 294.411 192.63 294.411 191.328C294.411 190.026 294.248 188.805 293.923 187.666C293.63 186.527 293.207 185.534 292.653 184.688C292.132 183.809 291.481 183.109 290.7 182.588C289.919 182.067 289.04 181.807 288.063 181.807C287.087 181.807 286.192 182.051 285.378 182.539C284.564 183.027 283.864 183.695 283.278 184.541C282.725 185.355 282.285 186.331 281.96 187.471C281.667 188.577 281.521 189.782 281.521 191.084C281.521 192.386 281.651 193.623 281.911 194.795C282.204 195.934 282.627 196.927 283.181 197.773C283.734 198.62 284.385 199.303 285.134 199.824C285.915 200.345 286.81 200.605 287.819 200.605ZM292.556 167.061L287.233 173.994H283.327L286.599 167.061H292.556ZM323.757 183.418C322.845 183.158 321.739 183.011 320.437 182.979C319.265 182.979 318.093 183.125 316.921 183.418C315.782 183.678 314.87 184.134 314.187 184.785V195.234V195.332V205H308.278V177.461H313.552L314.187 180.293C314.675 179.805 315.179 179.365 315.7 178.975C316.254 178.584 316.888 178.275 317.604 178.047C318.321 177.786 319.167 177.591 320.144 177.461C321.12 177.331 322.325 177.266 323.757 177.266V183.418ZM335.964 205H330.007V177.461H335.964V205ZM336.501 168.672C336.501 169.648 336.159 170.479 335.476 171.162C334.792 171.813 333.962 172.139 332.985 172.139C332.009 172.139 331.179 171.797 330.495 171.113C329.844 170.43 329.519 169.616 329.519 168.672C329.519 167.695 329.86 166.865 330.544 166.182C331.228 165.498 332.041 165.156 332.985 165.156C333.962 165.156 334.792 165.498 335.476 166.182C336.159 166.865 336.501 167.695 336.501 168.672ZM364.235 196.455V196.846C364.235 197.106 364.252 197.497 364.284 198.018C364.317 198.506 364.382 199.01 364.479 199.531C364.577 200.052 364.724 200.524 364.919 200.947C365.147 201.37 365.44 201.647 365.798 201.777L364.235 205.049C363.812 205.049 363.356 204.951 362.868 204.756C362.412 204.561 361.957 204.284 361.501 203.926C361.078 203.568 360.703 203.177 360.378 202.754C360.085 202.298 359.857 201.81 359.694 201.289C359.466 201.842 359.06 202.363 358.474 202.852C357.92 203.307 357.285 203.73 356.569 204.121C355.853 204.479 355.072 204.756 354.226 204.951C353.412 205.146 352.647 205.244 351.931 205.244C350.824 205.244 349.75 205.098 348.708 204.805C347.699 204.512 346.804 204.04 346.022 203.389C345.241 202.738 344.623 201.875 344.167 200.801C343.744 199.727 343.532 198.408 343.532 196.846C343.532 195.348 343.841 194.062 344.46 192.988C345.111 191.882 345.925 190.986 346.901 190.303C347.91 189.587 349.05 189.066 350.319 188.74C351.589 188.382 352.875 188.203 354.177 188.203H358.327C358.327 186.608 358.246 185.339 358.083 184.395C357.92 183.451 357.644 182.767 357.253 182.344C356.862 181.888 356.374 181.611 355.788 181.514C355.235 181.383 354.567 181.318 353.786 181.318C353.07 181.318 352.386 181.416 351.735 181.611C351.117 181.774 350.531 181.986 349.978 182.246C349.457 182.474 348.985 182.734 348.562 183.027C348.171 183.32 347.878 183.548 347.683 183.711L345.485 180.342C345.811 179.984 346.299 179.626 346.95 179.268C347.601 178.877 348.35 178.535 349.196 178.242C350.043 177.949 350.954 177.721 351.931 177.559C352.94 177.363 353.981 177.266 355.056 177.266C356.032 177.266 356.976 177.363 357.888 177.559C358.832 177.754 359.678 178.079 360.427 178.535C361.208 178.991 361.875 179.609 362.429 180.391C363.015 181.139 363.422 182.083 363.649 183.223C363.877 184.362 364.024 185.518 364.089 186.689C364.187 187.829 364.235 188.968 364.235 190.107V196.455ZM358.376 191.67H355.251C354.6 191.67 353.916 191.735 353.2 191.865C352.484 191.995 351.817 192.24 351.198 192.598C350.58 192.956 350.059 193.477 349.636 194.16C349.245 194.811 349.05 195.658 349.05 196.699C349.05 198.327 349.408 199.499 350.124 200.215C350.873 200.931 351.947 201.289 353.347 201.289C354.323 201.289 355.251 201.029 356.13 200.508C357.041 199.987 357.79 199.287 358.376 198.408V191.67ZM373.024 202.803L375.515 198.848C376.166 199.303 376.931 199.727 377.81 200.117C378.721 200.508 379.86 200.703 381.228 200.703C383.018 200.703 384.418 200.426 385.427 199.873C386.436 199.32 386.94 198.506 386.94 197.432C386.94 196.65 386.647 196.032 386.062 195.576C385.476 195.088 384.727 194.681 383.815 194.355C382.937 193.997 381.976 193.672 380.935 193.379C379.925 193.053 378.981 192.663 378.103 192.207C376.377 191.296 375.075 190.335 374.196 189.326C373.35 188.317 372.927 186.982 372.927 185.322C372.927 183.955 373.203 182.751 373.757 181.709C374.343 180.667 375.091 179.805 376.003 179.121C376.914 178.405 377.956 177.868 379.128 177.51C380.3 177.152 381.488 176.973 382.692 176.973C384.32 176.973 385.817 177.152 387.185 177.51C388.552 177.835 389.87 178.405 391.14 179.219L389.235 183.271C388.259 182.718 387.201 182.344 386.062 182.148C384.922 181.921 383.799 181.807 382.692 181.807C381.488 181.807 380.528 182.083 379.812 182.637C379.128 183.158 378.786 183.988 378.786 185.127C378.786 186.006 379.095 186.706 379.714 187.227C380.365 187.715 381.195 188.154 382.204 188.545C383.213 188.936 384.287 189.326 385.427 189.717C386.566 190.107 387.624 190.612 388.601 191.23C389.61 191.816 390.44 192.565 391.091 193.477C391.742 194.388 392.067 195.56 392.067 196.992C392.067 198.392 391.791 199.613 391.237 200.654C390.684 201.696 389.935 202.559 388.991 203.242C388.047 203.926 386.957 204.43 385.72 204.756C384.483 205.081 383.164 205.244 381.765 205.244C380.918 205.244 380.137 205.212 379.421 205.146C378.705 205.114 378.005 205.016 377.321 204.854C376.638 204.691 375.954 204.447 375.271 204.121C374.587 203.796 373.838 203.356 373.024 202.803Z" fill="white"/>
<path d="M120.125 21.3742C129.971 17.2811 144.088 12.8671 157.817 11.4954C172.613 10.013 185.162 12.1923 192.438 19.8144V127.629C182.036 121.766 168.853 120.959 156.693 122.176C143.565 123.503 130.327 127.275 120.125 131.147V21.3742ZM203.562 19.8144C210.838 12.1923 223.387 10.013 238.184 11.4954C251.912 12.8671 266.029 17.2811 275.875 21.3742V131.147C265.662 127.275 252.435 123.492 239.307 122.187C227.136 120.959 213.964 121.755 203.562 127.629V19.8144ZM198 9.81386C187.042 0.443925 171.155 -0.94995 156.693 0.488175C139.85 2.18074 122.851 7.92218 112.26 12.7122C111.288 13.1517 110.464 13.86 109.886 14.7525C109.308 15.645 109 16.6841 109 17.7457V139.433C109 140.359 109.234 141.269 109.68 142.082C110.126 142.894 110.77 143.582 111.552 144.083C112.335 144.584 113.231 144.881 114.16 144.948C115.088 145.015 116.018 144.85 116.865 144.467C126.678 140.042 142.486 134.721 157.805 133.183C173.48 131.612 186.619 134.145 193.661 142.885C194.182 143.531 194.843 144.052 195.594 144.41C196.345 144.769 197.167 144.955 198 144.955C198.833 144.955 199.655 144.769 200.406 144.41C201.157 144.052 201.818 143.531 202.339 142.885C209.381 134.145 222.52 131.612 238.184 133.183C253.514 134.721 269.333 140.042 279.135 144.467C279.982 144.85 280.912 145.015 281.84 144.948C282.769 144.881 283.665 144.584 284.448 144.083C285.23 143.582 285.874 142.894 286.32 142.082C286.766 141.269 287 140.359 287 139.433V17.7457C287 16.6841 286.692 15.645 286.114 14.7525C285.536 13.86 284.712 13.1517 283.74 12.7122C273.149 7.92218 256.15 2.18074 239.307 0.488175C224.845 -0.961012 208.958 0.443925 198 9.81386Z" fill="white"/>
</svg>
